<svg width="306" height="39" viewBox="0 0 306 39" fill="none" xmlns="http://www.w3.org/2000/svg">
<path d="M3.28693 38V0.181817H18.429C21.2112 0.181817 23.5317 0.594223 25.3906 1.41903C27.2495 2.24384 28.6468 3.38873 29.5824 4.85369C30.518 6.30634 30.9858 7.98059 30.9858 9.87642C30.9858 11.3537 30.6903 12.6525 30.0994 13.7727C29.5085 14.8807 28.696 15.7917 27.6619 16.5057C26.6402 17.2074 25.4706 17.706 24.1534 18.0014V18.3707C25.5938 18.4323 26.9418 18.8385 28.1974 19.5895C29.4654 20.3404 30.4934 21.393 31.2812 22.7472C32.0691 24.089 32.4631 25.6894 32.4631 27.5483C32.4631 29.5549 31.9645 31.3461 30.9673 32.9219C29.9825 34.4853 28.5237 35.7225 26.5909 36.6335C24.6581 37.5445 22.276 38 19.4446 38H3.28693ZM11.2827 31.4631H17.8011C20.0294 31.4631 21.6544 31.0384 22.6761 30.1889C23.6979 29.3272 24.2088 28.1823 24.2088 26.7543C24.2088 25.7079 23.9564 24.7846 23.4517 23.9844C22.947 23.1842 22.2268 22.5563 21.2912 22.1009C20.3679 21.6454 19.2661 21.4176 17.9858 21.4176H11.2827V31.4631ZM11.2827 16.0071H17.2102C18.3059 16.0071 19.2784 15.8163 20.1278 15.4347C20.9896 15.0407 21.6667 14.4867 22.1591 13.7727C22.6638 13.0587 22.9162 12.2031 22.9162 11.206C22.9162 9.83949 22.4299 8.73769 21.4574 7.90057C20.4972 7.06345 19.1307 6.64488 17.358 6.64488H11.2827V16.0071ZM37.6658 38V0.181817H52.5863C55.4424 0.181817 57.8799 0.692707 59.8988 1.71449C61.93 2.72396 63.475 4.15814 64.5337 6.01705C65.6048 7.86364 66.1403 10.0365 66.1403 12.5355C66.1403 15.0469 65.5986 17.2074 64.5153 19.017C63.4319 20.8144 61.8623 22.1932 59.8065 23.1534C57.7629 24.1136 55.2885 24.5938 52.3832 24.5938H42.3931V18.1676H51.0906C52.6171 18.1676 53.8851 17.9583 54.8945 17.5398C55.904 17.1212 56.6549 16.4934 57.1474 15.6562C57.6521 14.8191 57.9045 13.7789 57.9045 12.5355C57.9045 11.2798 57.6521 10.2211 57.1474 9.35938C56.6549 8.49763 55.8978 7.84517 54.8761 7.40199C53.8666 6.9465 52.5924 6.71875 51.0536 6.71875H45.6616V38H37.6658ZM58.0891 20.7898L67.4883 38H58.6616L49.4656 20.7898H58.0891ZM78.3093 38H69.7411L82.7965 0.181817H93.1005L106.137 38H97.5692L88.0962 8.82386H87.8008L78.3093 38ZM77.7738 23.1349H98.0124V29.3764H77.7738V23.1349ZM142.321 0.181817V38H135.415L118.962 14.1974H118.685V38H110.689V0.181817H117.706L134.03 23.9659H134.363V0.181817H142.321ZM162.334 38H148.928V0.181817H162.445C166.249 0.181817 169.523 0.93892 172.268 2.45312C175.014 3.95502 177.125 6.11553 178.602 8.93466C180.092 11.7538 180.837 15.1269 180.837 19.054C180.837 22.9934 180.092 26.3788 178.602 29.2102C177.125 32.0417 175.001 34.2145 172.232 35.7287C169.474 37.2429 166.175 38 162.334 38ZM156.923 31.1491H162.001C164.365 31.1491 166.353 30.7306 167.966 29.8935C169.591 29.044 170.81 27.733 171.622 25.9602C172.447 24.1752 172.859 21.8731 172.859 19.054C172.859 16.2595 172.447 13.9759 171.622 12.2031C170.81 10.4304 169.597 9.12547 167.984 8.28835C166.372 7.45123 164.384 7.03267 162.02 7.03267H156.923V31.1491Z" fill="#3C4765"/>
<path d="M184.396 38L190.674 0.181817H215.714L214.606 6.77415H197.562L196.085 15.7855H211.467L210.359 22.3778H194.977L192.392 38H184.396ZM222.325 38.5355C220.528 38.5355 218.97 38.2216 217.653 37.5938C216.348 36.9536 215.388 36.0057 214.772 34.75C214.157 33.4943 214.003 31.937 214.311 30.0781C214.582 28.5024 215.092 27.1851 215.843 26.1264C216.607 25.0554 217.536 24.1937 218.632 23.5412C219.727 22.8887 220.94 22.3902 222.27 22.0455C223.611 21.7008 224.996 21.4669 226.424 21.3438C228.074 21.1714 229.416 21.0052 230.45 20.8452C231.496 20.6851 232.278 20.4574 232.795 20.1619C233.312 19.8542 233.626 19.3987 233.737 18.7955V18.6847C233.922 17.5275 233.706 16.6288 233.091 15.9886C232.487 15.3362 231.521 15.0099 230.191 15.0099C228.788 15.0099 227.594 15.3177 226.609 15.9332C225.636 16.5488 224.941 17.3305 224.522 18.2784L217.358 17.6875C217.998 15.964 218.964 14.4744 220.257 13.2188C221.562 11.9508 223.131 10.9782 224.966 10.3011C226.8 9.61174 228.856 9.26705 231.133 9.26705C232.709 9.26705 234.18 9.4517 235.547 9.82102C236.925 10.1903 238.113 10.7628 239.11 11.5384C240.12 12.3139 240.846 13.3111 241.289 14.5298C241.745 15.7363 241.837 17.1828 241.566 18.8693L238.372 38H230.912L231.576 34.0668H231.355C230.752 34.9531 230.013 35.7348 229.139 36.4119C228.265 37.0767 227.261 37.5999 226.129 37.9815C224.996 38.3509 223.728 38.5355 222.325 38.5355ZM225.483 33.1065C226.627 33.1065 227.68 32.8788 228.64 32.4233C229.613 31.9555 230.413 31.3277 231.041 30.5398C231.681 29.7519 232.087 28.8594 232.26 27.8622L232.74 24.8523C232.493 25.0123 232.136 25.1539 231.669 25.277C231.213 25.4001 230.715 25.517 230.173 25.6278C229.644 25.7263 229.108 25.8187 228.566 25.9048C228.025 25.9787 227.538 26.0526 227.108 26.1264C226.16 26.2618 225.31 26.4773 224.559 26.7727C223.808 27.0682 223.199 27.4683 222.731 27.973C222.263 28.4654 221.974 29.081 221.863 29.8196C221.691 30.8906 221.943 31.7093 222.62 32.2756C223.31 32.8295 224.264 33.1065 225.483 33.1065ZM257.216 38.554C254.299 38.554 251.898 37.9384 250.015 36.7074C248.143 35.464 246.832 33.7405 246.081 31.5369C245.343 29.3333 245.213 26.7973 245.694 23.929C246.161 21.0237 247.14 18.4754 248.63 16.2841C250.119 14.0805 252.009 12.3632 254.299 11.1321C256.601 9.88873 259.186 9.26705 262.054 9.26705C264.529 9.26705 266.622 9.71638 268.333 10.6151C270.044 11.5137 271.3 12.7756 272.1 14.4006C272.9 16.0256 273.171 17.9337 272.912 20.125H265.507C265.52 18.7216 265.157 17.5829 264.418 16.7088C263.679 15.8348 262.596 15.3977 261.168 15.3977C259.937 15.3977 258.804 15.7301 257.77 16.3949C256.748 17.0473 255.881 18.0014 255.167 19.2571C254.465 20.5128 253.972 22.0331 253.689 23.8182C253.394 25.6278 253.388 27.1667 253.671 28.4347C253.954 29.7027 254.496 30.669 255.296 31.3338C256.096 31.9986 257.105 32.331 258.324 32.331C259.235 32.331 260.078 32.1463 260.854 31.777C261.642 31.4077 262.331 30.8722 262.922 30.1705C263.513 29.4564 263.969 28.6009 264.289 27.6037H271.712C271.207 29.7827 270.29 31.6908 268.961 33.3281C267.643 34.9654 265.988 36.2457 263.993 37.169C261.999 38.0923 259.74 38.554 257.216 38.554ZM287.847 38.554C284.941 38.554 282.535 37.9631 280.626 36.7812C278.718 35.5871 277.376 33.9006 276.601 31.7216C275.838 29.5303 275.708 26.9389 276.213 23.9474C276.705 21.0298 277.696 18.4692 279.186 16.2656C280.688 14.062 282.571 12.3447 284.837 11.1136C287.102 9.88258 289.625 9.26705 292.408 9.26705C294.279 9.26705 295.972 9.56866 297.486 10.1719C299.012 10.7628 300.28 11.6615 301.29 12.8679C302.299 14.062 302.989 15.5578 303.358 17.3551C303.74 19.1525 303.733 21.2576 303.339 23.6705L302.989 25.831H279.057L279.814 20.956H296.359C296.544 19.8234 296.47 18.8201 296.138 17.946C295.805 17.072 295.251 16.3887 294.476 15.8963C293.7 15.3916 292.746 15.1392 291.614 15.1392C290.456 15.1392 289.373 15.4223 288.364 15.9886C287.354 16.5549 286.505 17.2997 285.815 18.223C285.138 19.134 284.701 20.125 284.504 21.196L283.636 26.0341C283.39 27.5237 283.439 28.7609 283.784 29.7457C284.141 30.7306 284.757 31.4692 285.631 31.9616C286.505 32.4418 287.613 32.6818 288.955 32.6818C289.829 32.6818 290.647 32.5587 291.411 32.3125C292.186 32.0663 292.875 31.7031 293.479 31.223C294.082 30.7306 294.574 30.1212 294.956 29.3949L302.139 29.875C301.474 31.6231 300.465 33.1496 299.111 34.4545C297.757 35.7472 296.125 36.7566 294.217 37.483C292.321 38.197 290.198 38.554 287.847 38.554Z" fill="#009DDA"/>
</svg>
