<svg width="100" height="40" viewBox="0 0 100 40" fill="none" xmlns="http://www.w3.org/2000/svg">
<path d="M4.77008 4.235C5.03008 3.001 6.26008 2 7.51308 2H14.3251L8.66008 28.823H1.84808C0.59408 28.823 -0.21192 27.823 0.04908 26.588L4.77008 4.235ZM27.4771 4.235C27.7381 3.001 28.9671 2 30.2201 2H37.0321L31.3671 28.823H24.5551C23.3011 28.823 22.4951 27.823 22.7561 26.588L27.4771 4.235ZM72.8921 4.235C73.1521 3.001 74.3801 2 75.6351 2H82.4471L76.7821 28.823H69.9691C68.7151 28.823 67.9101 27.823 68.1711 26.588L72.8921 4.235ZM39.3031 2H46.1151C47.3691 2 48.1751 3 47.9141 4.235L43.1931 26.588C42.9331 27.823 41.7041 28.823 40.4501 28.823H33.6381L36.4706 15.4115L39.3031 2ZM84.7181 2H91.5301C92.7841 2 93.5901 3 93.3291 4.235L88.6071 26.588C88.3471 27.823 87.1191 28.823 85.8651 28.823H79.0521L84.7181 2ZM50.1851 4.235C50.4451 3.001 51.6731 2 52.9271 2H59.7401L54.0741 28.823H47.2621C46.0081 28.823 45.2021 27.823 45.4641 26.588L50.1841 4.235H50.1851ZM62.0101 2H68.8231C70.0771 2 70.8821 3 70.6211 4.235L63.5401 37.765C63.2781 38.999 62.0501 40 60.7961 40H53.9831L62.0101 2ZM12.8191 19.882H21.9021L20.4861 26.588C20.2251 27.823 18.9961 28.823 17.7431 28.823H10.9301L12.8181 19.883L12.8191 19.882ZM44.5201 31.059H53.6021L51.7141 40H44.9021C43.6471 40 42.8421 39 43.1031 37.765L44.5201 31.059ZM69.1741 33.138L68.0241 38.584C67.9741 38.818 67.8961 38.882 67.6581 38.882H67.1351C66.8971 38.882 66.8451 38.818 66.8951 38.584L68.0451 33.138C68.0951 32.905 68.1731 32.84 68.4111 32.84H68.9341C69.1721 32.84 69.2241 32.905 69.1741 33.138ZM70.6861 36.812H70.5791C70.4651 36.812 70.4251 36.844 70.4021 36.957L70.0581 38.584C70.0081 38.818 69.9291 38.882 69.6921 38.882H69.1681C68.9311 38.882 68.8791 38.818 68.9281 38.584L70.0781 33.138C70.1281 32.905 70.2081 32.84 70.4451 32.84H71.5251C72.7691 32.84 73.2401 33.283 73.0101 34.37L72.8181 35.281C72.5881 36.369 71.9301 36.812 70.6861 36.812ZM71.0021 34.113L70.7021 35.539C70.6771 35.652 70.7031 35.684 70.8181 35.684H70.9901C71.3901 35.684 71.6051 35.523 71.6921 35.112L71.8121 34.54C71.8991 34.13 71.7531 33.968 71.3521 33.968H71.1801C71.0661 33.968 71.0261 34 71.0021 34.113ZM74.7401 34.991L75.5901 35.926C76.0361 36.409 76.0981 36.699 75.9841 37.239L75.9541 37.384C75.7391 38.399 75.2271 38.963 74.0401 38.963C72.8541 38.963 72.5611 38.488 72.8351 37.19L72.8691 37.03C72.9191 36.796 72.9981 36.731 73.2351 36.731H73.7911C74.0291 36.731 74.0811 36.796 74.0311 37.029L73.9561 37.384C73.8881 37.706 73.9921 37.835 74.2781 37.835C74.5651 37.835 74.7211 37.715 74.7831 37.425L74.8151 37.271C74.8631 37.045 74.8371 36.933 74.5911 36.667L73.7911 35.805C73.3431 35.33 73.2861 35.055 73.4001 34.515L73.4371 34.339C73.6521 33.324 74.1641 32.759 75.3501 32.759C76.5371 32.759 76.8301 33.235 76.5561 34.532L76.5221 34.693C76.4721 34.927 76.3931 34.991 76.1561 34.991H75.5991C75.3621 34.991 75.3101 34.927 75.3591 34.693L75.4341 34.339C75.5021 34.016 75.3991 33.888 75.1121 33.888C74.8261 33.888 74.6691 34.008 74.6081 34.298L74.5791 34.435C74.5291 34.669 74.5551 34.782 74.7401 34.991ZM79.5321 33.138C79.5821 32.905 79.6601 32.84 79.8981 32.84H80.4211C80.6591 32.84 80.7111 32.905 80.6611 33.138L79.8051 37.191C79.5311 38.488 79.0381 38.963 77.8511 38.963C76.6651 38.963 76.3721 38.488 76.6461 37.19L77.5021 33.138C77.5521 32.905 77.6311 32.84 77.8681 32.84H78.3921C78.6291 32.84 78.6811 32.905 78.6321 33.138L77.7351 37.384C77.6671 37.706 77.7791 37.835 78.0901 37.835C78.3921 37.835 78.5671 37.706 78.6351 37.384L79.5321 33.138ZM82.9381 36.417C82.9411 36.482 82.9621 36.497 83.0031 36.497C83.0431 36.497 83.0721 36.482 83.1021 36.417L84.5161 33.05C84.5851 32.88 84.6671 32.84 84.8721 32.84H85.6661C85.9031 32.84 85.9551 32.905 85.9061 33.138L84.7561 38.584C84.7061 38.818 84.6261 38.882 84.3891 38.882H84.0131C83.7761 38.882 83.7231 38.818 83.7731 38.584L84.3251 35.974C84.3401 35.902 84.3271 35.885 84.2781 35.885C84.2451 35.885 84.2081 35.902 84.1881 35.958L83.0461 38.617C82.9641 38.81 82.8591 38.882 82.6221 38.882H82.4001C82.1541 38.882 82.0801 38.81 82.0801 38.617L82.0521 35.957C82.0471 35.901 82.0341 35.885 81.9931 35.885C81.9441 35.885 81.9241 35.902 81.9091 35.974L81.3581 38.584C81.3081 38.818 81.2301 38.882 80.9921 38.882H80.6161C80.3781 38.882 80.3261 38.818 80.3761 38.584L81.5261 33.138C81.5761 32.905 81.6551 32.84 81.8921 32.84H82.5721C82.8581 32.84 82.9501 32.905 82.9481 33.187L82.9371 36.417H82.9381ZM100 2C100 3.105 99.1101 4 98.0131 4C97.7513 3.99921 97.4922 3.94685 97.2506 3.8459C97.009 3.74496 96.7897 3.5974 96.6052 3.41167C96.4207 3.22594 96.2746 3.00567 96.1752 2.76345C96.0758 2.52123 96.0252 2.26181 96.0261 2C96.0261 0.895 96.9161 0 98.0131 0C99.1101 0 100 0.895 100 2Z" fill="white"/>
</svg>
