<svg width="51" height="40" viewBox="0 0 51 40" fill="none" xmlns="http://www.w3.org/2000/svg">
<path d="M32.5123 0H50.9688V13.2677C50.9688 18.6097 50.4871 22.8134 49.5238 25.8785C48.6043 28.9436 46.8528 31.7241 44.2693 34.22C41.7296 36.6721 38.5112 38.5988 34.6141 40L31.0016 32.3153C34.6798 31.0892 37.3071 29.3815 38.8834 27.1921C40.5036 25.0027 41.3355 22.0909 41.3793 18.4565H32.5123V0ZM1.51067 0H19.9672V13.2677C19.9672 18.6097 19.5074 22.8134 18.5879 25.8785C17.6683 28.9436 15.9168 31.7241 13.3333 34.22C10.7937 36.6721 7.55337 38.5988 3.61248 40L0 32.3153C3.72195 31.0892 6.3711 29.3815 7.94746 27.1921C9.52381 25.0027 10.3558 22.0909 10.4434 18.4565H1.51067V0Z" fill="#3C4765" fill-opacity="0.3"/>
</svg>
