<svg width="20" height="20" viewBox="0 0 20 20" fill="none" xmlns="http://www.w3.org/2000/svg">
<path fill-rule="evenodd" clip-rule="evenodd" d="M15.9485 8.99576C15.9485 12.8639 12.8215 15.9915 8.97426 15.9915C5.12699 15.9915 2 12.8639 2 8.99576C2 5.12759 5.12699 2 8.97426 2C12.8215 2 15.9485 5.12759 15.9485 8.99576ZM14.3378 16.2088C12.8416 17.3286 10.9851 17.9915 8.97426 17.9915C4.01791 17.9915 0 13.964 0 8.99576C0 4.02754 4.01791 0 8.97426 0C13.9306 0 17.9485 4.02754 17.9485 8.99576C17.9485 11.2238 17.1405 13.2626 15.8021 14.8339L19.6632 18.248C20.0769 18.6139 20.1165 19.2465 19.7517 19.6611C19.3868 20.0757 18.7556 20.1153 18.3419 19.7494L14.3378 16.2088Z" fill="#F5F5F5"/>
</svg>
