<svg width="20" height="20" viewBox="0 0 20 20" fill="none" xmlns="http://www.w3.org/2000/svg">
<path d="M10 0C4.48673 0 0 4.48673 0 10C0 15.5133 4.48673 20 10 20C15.5133 20 20 15.5133 20 10C20 4.48673 15.5133 0 10 0ZM18.292 9.16814H15.8142C15.6991 6.60177 15.0354 4.34513 14.0265 2.70796C16.3628 4 18.0177 6.38053 18.3009 9.16814H18.292ZM9.16814 1.84071V9.16814H5.85841C6.04425 5.58407 7.42478 2.58407 9.16814 1.84071ZM9.16814 10.8319V18.1593C7.42478 17.4159 6.04425 14.4248 5.85841 10.8319H9.16814ZM10.8319 18.1593V10.8319H14.1681C13.9823 14.4159 12.5752 17.4159 10.8319 18.1593ZM10.8319 9.16814V1.84071C12.5752 2.58407 13.9558 5.57522 14.1416 9.16814H10.8319ZM5.9823 2.70796C4.97345 4.34513 4.30973 6.60177 4.19469 9.16814H1.70796C1.9823 6.38053 3.63717 4 5.9823 2.70796ZM1.70796 10.8319H4.18584C4.30089 13.3982 4.9646 15.6549 5.97345 17.292C3.63717 16 1.9823 13.6195 1.69912 10.8319H1.70796ZM14.0177 17.292C15.0265 15.6549 15.6903 13.3982 15.8053 10.8319H18.2832C18.0089 13.6195 16.354 16 14.0089 17.292H14.0177Z" fill="#F5F5F5"/>
</svg>
